<svg width="58" height="16" viewBox="0 0 58 16" fill="none" xmlns="http://www.w3.org/2000/svg">
<path d="M55.1442 8.89559C36.8859 7.7039 18.6253 7.4445 0.359899 8.9397C0.348135 8.85853 0.336959 8.77795 0.325195 8.69678C0.446953 8.64913 0.566357 8.57208 0.691055 8.55737C2.8521 8.29798 5.01256 8.0327 7.17537 7.79271C17.2848 6.67984 27.423 6.61632 37.5623 6.81866C43.0655 6.92924 48.5658 7.24275 54.0672 7.46568C54.2637 7.47391 54.4595 7.46568 54.7519 7.46568C52.3526 5.32698 49.9075 3.4071 47.6547 1.209L47.7505 1.02783C47.8946 1.09547 48.0499 1.14253 48.1811 1.23429C50.3065 2.71263 52.4299 4.19372 54.5513 5.67755C55.3807 6.25634 56.2077 6.84042 57.0476 7.39862C57.8711 7.94682 57.9335 8.53385 57.1747 9.2091C56.7887 9.56069 56.364 9.86734 55.9089 10.1232C53.0302 11.687 50.1447 13.234 47.2523 14.7641C46.9176 14.9292 46.5549 15.0302 46.183 15.0617C46.033 15.0776 45.7771 14.8982 45.7283 14.7423C45.6795 14.5864 45.776 14.2717 45.8995 14.1623C46.1518 13.9329 46.4589 13.7753 46.7547 13.6171C49.5608 12.1125 52.3685 10.6116 55.1777 9.1144C55.1642 9.04146 55.1536 8.96852 55.1442 8.89559Z" fill="#F8C32C" stroke="#F8C32C" stroke-width="0.588199" stroke-miterlimit="10" stroke-linecap="round"/>
</svg>
