<svg width="80" height="80" viewBox="0 0 80 80" fill="none" xmlns="http://www.w3.org/2000/svg">
<rect x="0.0800171" y="0.350006" width="79" height="79" rx="39.5" fill="#093416"/>
<path d="M56.1662 27.5297H54.3627L56.0549 32.0941C56.8341 31.1367 57.2795 29.9345 57.2795 28.643C57.2795 28.0195 56.7898 27.5297 56.1662 27.5297Z" fill="#F8C32C"/>
<path d="M46.1467 20.85C44.5214 20.85 43.0518 21.7407 42.2725 23.1212C39.7423 22.7522 37.2405 24.7749 37.2405 27.5297C37.2405 29.1774 38.1311 30.6024 39.467 31.3816C39.467 24.8872 45.4092 21.6355 50.2881 23.6777C49.6424 22.0302 48.0171 20.85 46.1467 20.85Z" fill="#F8C32C"/>
<path d="M56.2999 39.323L52.1139 28.0195C51.4353 27.2339 51.3195 26.9183 50.4663 26.3495V26.3274C49.1723 25.3927 47.4007 25.0172 45.657 25.548C43.6448 26.0514 41.7942 28.1561 41.6936 30.6691V37.6977C41.6936 38.3212 41.2038 38.8109 40.5803 38.8109H30.828L30.7613 38.8332C30.6277 39.1671 30.5608 39.5457 30.5608 39.9242C30.5608 41.7723 32.0525 43.2641 33.9006 43.2641H38.3538C39.8286 43.2641 39.8286 45.4906 38.3538 45.4906H33.9006C32.4258 45.4906 32.4258 47.7172 33.9006 47.7172H38.3538C39.8286 47.7172 39.8286 49.9438 38.3538 49.9438H36.1272C34.6523 49.9438 34.6523 52.1703 36.1272 52.1703H38.3538C42.651 52.1703 46.1467 48.6746 46.1467 44.3773C46.1467 42.9025 48.3733 42.9025 48.3733 44.3773C48.3733 49.8991 43.8756 54.3969 38.3538 54.3969H36.1272C33.7308 54.3969 32.1465 51.961 33.0323 49.8102C30.8469 49.2298 29.8362 46.689 31.1398 44.7335C29.4699 43.7761 28.3343 41.9949 28.3343 39.9242C28.3343 38.8332 28.646 37.7866 29.2027 36.9405C28.4168 35.37 27.3155 34.3578 25.5287 34.3578C23.3913 34.3578 21.6545 36.0946 21.6545 38.232V39.9242C21.6545 49.0977 26.7311 58.85 36.1271 58.85H42.74C48.2396 58.85 52.6705 56.8016 55.2534 53.0831C57.8362 49.3648 58.2146 44.4663 56.2999 39.323ZM47.26 31.9828C46.6365 31.9828 46.1467 31.493 46.1467 30.8695C46.1467 30.246 46.6365 29.7562 47.26 29.7562C47.8835 29.7562 48.3733 30.246 48.3733 30.8695C48.3733 31.493 47.8835 31.9828 47.26 31.9828Z" fill="#F8C32C"/>
</svg>
