<svg width="80" height="80" viewBox="0 0 80 80" fill="none" xmlns="http://www.w3.org/2000/svg">
<g id="variant=25">
<path id="Vector" d="M3.93883 41.2352C29.1227 39.5915 54.3098 39.2337 79.5034 41.296C79.5196 41.1841 79.535 41.0729 79.5513 40.961C79.3833 40.8953 79.2186 40.789 79.0466 40.7687C76.0659 40.4109 73.0859 40.045 70.1028 39.714C56.1588 38.179 42.175 38.0914 28.1897 38.3705C20.5991 38.523 13.0125 38.9554 5.42434 39.2629C5.15336 39.2743 4.88319 39.2629 4.47997 39.2629C7.78931 36.313 11.1619 33.6649 14.2692 30.633L14.137 30.3831C13.9382 30.4764 13.724 30.5413 13.5431 30.6679C10.6116 32.707 7.68275 34.7499 4.75662 36.7965C3.61268 37.5948 2.47198 38.4005 1.31343 39.1704C0.177597 39.9266 0.0915909 40.7362 1.13818 41.6676C1.67059 42.1526 2.25632 42.5755 2.88412 42.9284C6.85468 45.0854 10.8347 47.2191 14.8242 49.3296C15.2858 49.5575 15.7861 49.6967 16.2991 49.7402C16.506 49.7621 16.8589 49.5146 16.9263 49.2996C16.9936 49.0846 16.8606 48.6506 16.6902 48.4997C16.3421 48.1833 15.9186 47.9658 15.5105 47.7476C11.6401 45.6722 7.7674 43.6021 3.89259 41.537C3.91125 41.4364 3.92584 41.3358 3.93883 41.2352Z" fill="white" stroke="white" stroke-width="0.81131" stroke-miterlimit="10" stroke-linecap="round"/>
</g>
</svg>
