<svg width="10" height="14" viewBox="0 0 10 14" fill="none" xmlns="http://www.w3.org/2000/svg">
<g id="Component 1">
<path id="Vector" d="M4.98998 0.329956C2.22984 0.329956 -0.00805664 2.56817 -0.00805664 5.32873C-0.00805664 7.34404 0.693986 7.90705 4.47667 13.3912C4.7248 13.7495 5.25519 13.7495 5.50329 13.3912C9.28598 7.90705 9.98802 7.34404 9.98802 5.32873C9.98802 2.56817 7.75012 0.329956 4.98998 0.329956ZM4.98998 7.41147C3.84134 7.41147 2.90746 6.47746 2.90746 5.32865C2.90746 4.17985 3.84134 3.24582 4.98998 3.24582C6.13862 3.24582 7.0725 4.17983 7.0725 5.32865C7.0725 6.47748 6.13862 7.41147 4.98998 7.41147Z" fill="#0D401C"/>
</g>
</svg>
