<svg width="14" height="12" viewBox="0 0 14 12" fill="none" xmlns="http://www.w3.org/2000/svg">
<g id="Component 1">
<path id="Vector" d="M9.8276 1.6637H5.60745C6.63077 2.38275 7.30171 3.5699 7.30171 4.91213V10.3262H12.3535C12.751 10.3262 13.0752 10.0019 13.0752 9.60432V4.91213C13.0752 3.11873 11.6205 1.6637 9.8276 1.6637ZM11.6318 6.35588C11.6318 6.55521 11.4703 6.71682 11.271 6.71682H10.5493C10.35 6.71682 10.1884 6.55521 10.1884 6.35588V5.27307H9.10592C8.90748 5.27307 8.74508 5.11067 8.74508 4.91213C8.74508 4.7136 8.90748 4.5512 9.10592 4.5512H11.271C11.4703 4.5512 11.6318 4.71281 11.6318 4.91213V6.35588ZM3.33247 1.6637C1.53954 1.6637 0.0848999 3.11873 0.0848999 4.91213V9.60432C0.0848999 10.0019 0.409093 10.3262 0.806581 10.3262H6.58003V4.91213C6.58003 3.11873 5.12539 1.6637 3.33247 1.6637ZM4.77583 5.27307H1.8891C1.68983 5.27307 1.52826 5.11146 1.52826 4.91213C1.52826 4.71281 1.68983 4.5512 1.8891 4.5512H4.77583C4.97515 4.5512 5.13667 4.71281 5.13667 4.91213C5.13667 5.11146 4.97515 5.27307 4.77583 5.27307Z" fill="#0D401C"/>
</g>
</svg>
