<svg width="80" height="80" viewBox="0 0 80 80" fill="none" xmlns="http://www.w3.org/2000/svg">
<rect x="0.0800171" y="0.350006" width="79" height="79" rx="39.5" fill="#093416"/>
<path fill-rule="evenodd" clip-rule="evenodd" d="M44.7316 49.6856C45.0843 49.6856 45.3796 49.9727 45.3796 50.3336C45.3796 50.6945 45.0925 50.9816 44.7316 50.9816C44.3788 50.9816 44.0835 50.6945 44.0835 50.3336C44.0835 49.9809 44.3788 49.6856 44.7316 49.6856ZM33.9691 49.6856C34.3218 49.6856 34.6171 49.9727 34.6171 50.3336C34.6171 50.6945 34.33 50.9816 33.9691 50.9816C33.6163 50.9816 33.321 50.6945 33.321 50.3336C33.321 49.9809 33.6081 49.6856 33.9691 49.6856ZM46.5198 42.7949C48.4066 43.4184 50.1702 44.3617 51.737 45.584C52.5901 46.2484 53.0905 47.2574 53.1152 48.3402V55.2309H47.7339L46.9792 49.7266C46.9218 49.3 46.5526 48.9801 46.1179 48.9883H45.88L46.5198 42.7949ZM39.3339 41.4496C41.0566 41.4578 42.7628 41.6875 44.4198 42.1469L43.7144 48.9883H34.9452L34.2398 42.1551C35.905 41.7121 37.6112 41.4742 39.3339 41.4496ZM39.2026 31.7863C41.5405 31.7699 43.8702 31.893 46.1917 32.1637C46.2163 32.3852 46.2327 32.6066 46.2245 32.8281C46.2245 36.6344 43.1401 39.7188 39.3339 39.7188C35.5276 39.7188 32.4433 36.6344 32.4433 32.8281C32.4351 32.5902 32.4515 32.3524 32.4761 32.1227C34.7073 31.893 36.955 31.7781 39.2026 31.7863ZM36.0855 21.6391C37.9148 21.6391 38.2839 22.1148 39.3831 22.1148C40.4823 22.1148 40.8515 21.6391 42.6808 21.6391C44.4198 21.6391 45.2401 25.4207 45.5026 27.5453C49.9651 28.8824 51.4745 30.0145 51.4663 30.925C51.4663 32.8363 50.523 30.4902 39.1944 30.4902C27.7019 30.4902 26.9226 32.8281 26.9226 30.925C26.9226 30.0063 28.4648 28.866 32.9519 27.5289C33.3046 25.3961 34.3628 21.6391 36.0855 21.6391ZM32.1562 42.7949L32.796 48.9883H32.5499C32.1151 48.9801 31.746 49.3 31.6886 49.7266L30.9339 55.2309H25.5609V48.3402C25.5855 47.2574 26.0859 46.2484 26.939 45.584C28.5058 44.3617 30.2694 43.4184 32.1562 42.7949Z" fill="#F8C32C"/>
</svg>
