<svg width="19" height="19" viewBox="0 0 19 19" fill="none" xmlns="http://www.w3.org/2000/svg">
<g id="Component 1">
<path id="Vector" d="M9.08002 18.35C11.467 18.35 13.7562 17.4018 15.444 15.714C17.1318 14.0261 18.08 11.737 18.08 9.35001C18.08 6.96306 17.1318 4.67387 15.444 2.98605C13.7562 1.29822 11.467 0.350006 9.08002 0.350006C6.69307 0.350006 4.40388 1.29822 2.71606 2.98605C1.02823 4.67387 0.0800171 6.96306 0.0800171 9.35001C0.0800171 11.737 1.02823 14.0261 2.71606 15.714C4.40388 17.4018 6.69307 18.35 9.08002 18.35ZM13.0527 7.69766L8.55267 12.1977C8.2222 12.5281 7.68783 12.5281 7.36088 12.1977L5.11088 9.94766C4.78041 9.61719 4.78041 9.08282 5.11088 8.75587C5.44135 8.42891 5.97572 8.4254 6.30267 8.75587L7.95502 10.4082L11.8574 6.50235C12.1878 6.17188 12.7222 6.17188 13.0492 6.50235C13.3761 6.83282 13.3796 7.36719 13.0492 7.69415L13.0527 7.69766Z" fill="#F8C32C"/>
</g>
</svg>
