<svg width="55" height="55" viewBox="0 0 55 55" fill="none" xmlns="http://www.w3.org/2000/svg">
<rect x="0.5" y="0.5" width="54" height="54" rx="27" fill="#0D401C"/>
<rect x="0.5" y="0.5" width="54" height="54" rx="27" stroke="#0D401C"/>
<path d="M36.356 16.5704L33.212 19.7768V21.4232H30.6488V19.7768L27.5 16.5704L24.356 19.7768V21.4232H21.7928V19.7768L18.644 16.5704L15.5 19.7768V38.4296H21.788V36.8888H24.3512V38.4296H30.6392V36.8888H33.212V38.4296H39.5V19.7768L36.356 16.5704ZM18.644 36.6152C18.404 36.6152 18.2072 36.4232 18.2072 36.1784C18.2072 35.9384 18.3992 35.7416 18.644 35.7416C18.8888 35.7416 19.0808 35.9336 19.0808 36.1784C19.0808 36.4232 18.8888 36.6152 18.644 36.6152ZM18.644 22.5656C18.404 22.5656 18.2072 22.3736 18.2072 22.1288C18.2072 21.884 18.3992 21.692 18.644 21.692C18.8888 21.692 19.0808 21.884 19.0808 22.1288C19.0808 22.364 18.8888 22.5656 18.644 22.5656ZM21.7928 35.4728V22.8344H24.356V35.4728H21.7928ZM27.5 36.6152C27.26 36.6152 27.0632 36.4232 27.0632 36.1784C27.0632 35.9384 27.2552 35.7416 27.5 35.7416C27.7448 35.7416 27.9368 35.9336 27.9368 36.1784C27.9368 36.4232 27.74 36.6152 27.5 36.6152ZM27.5 22.5656C27.26 22.5656 27.0632 22.3736 27.0632 22.1288C27.0632 21.884 27.2552 21.692 27.5 21.692C27.7448 21.692 27.9368 21.884 27.9368 22.1288C27.932 22.364 27.74 22.5656 27.5 22.5656ZM30.6488 35.4728V22.8344H33.212V35.4728H30.6488ZM36.356 36.6152C36.116 36.6152 35.9192 36.4232 35.9192 36.1784C35.9192 35.9384 36.1112 35.7416 36.356 35.7416C36.596 35.7416 36.7928 35.9336 36.7928 36.1784C36.7928 36.4232 36.5912 36.6152 36.356 36.6152ZM36.356 22.5656C36.116 22.5656 35.9192 22.3736 35.9192 22.1288C35.9192 21.884 36.1112 21.692 36.356 21.692C36.596 21.692 36.7928 21.884 36.7928 22.1288C36.788 22.364 36.5912 22.5656 36.356 22.5656Z" fill="white"/>
</svg>
