<svg width="12" height="12" viewBox="0 0 12 12" fill="none" xmlns="http://www.w3.org/2000/svg">
<g id="Component 1">
<path id="Vector" d="M11.3629 8.81442L10.8634 10.9797C10.7932 11.2858 10.524 11.5 10.2088 11.5C4.78933 11.5 0.380005 7.09095 0.380005 1.6708C0.380005 1.35591 0.594183 1.08669 0.900335 1.01686L3.06489 0.51735C3.38043 0.444153 3.70437 0.607971 3.83529 0.906754L4.83498 3.23916C4.95182 3.51378 4.87292 3.83336 4.64197 4.02201L3.48551 4.96934C4.21563 6.45649 5.42514 7.66567 6.91293 8.39614L7.85925 7.24C8.04591 7.00838 8.3685 6.92848 8.64309 7.04731L10.9738 8.04636C11.2726 8.17526 11.4354 8.50088 11.3629 8.81442Z" fill="#0D401C"/>
</g>
</svg>
