<svg width="55" height="54" viewBox="0 0 55 54" fill="none" xmlns="http://www.w3.org/2000/svg">
<rect x="0.97998" width="54" height="54" rx="27" fill="#52320A"/>
<path d="M33.0267 21.0912C33.0073 21.3252 33.0918 21.5563 33.2578 21.7223C33.4243 21.8889 33.6545 21.9743 33.8894 21.9549C34.9425 21.867 36.7063 21.5354 37.905 20.3367C39.1027 19.139 39.4343 17.3762 39.5226 16.3227C39.5416 16.0882 39.4576 15.8576 39.2911 15.691C39.125 15.525 38.8944 15.4391 38.6599 15.459C37.6064 15.5464 35.8436 15.8789 34.6449 17.0766C33.4472 18.2753 33.1141 20.0377 33.0267 21.0912Z" fill="white"/>
<path d="M29.5356 25.4524C29.62 25.5446 31.6581 27.7517 34.1618 27.7522C35.8557 27.7517 37.3379 26.7404 38.1448 26.0578C38.324 25.9058 38.4279 25.6825 38.4279 25.4475C38.4279 25.2125 38.324 24.9892 38.1438 24.8373C37.337 24.1547 35.8543 23.1419 34.1599 23.1409C32.2888 23.1419 30.6769 24.377 29.9472 25.0387C30.6095 24.3095 31.8441 22.6972 31.8446 20.8256C31.8441 19.1308 30.8323 17.649 30.1487 16.8421C29.9973 16.6625 29.7734 16.5591 29.5385 16.5591C29.303 16.5596 29.0806 16.6635 28.9287 16.8426C28.2461 17.6495 27.2343 19.1312 27.2343 20.8246C27.2362 23.3298 29.4428 25.3674 29.5356 25.4524Z" fill="white"/>
<path d="M29.669 27.6337C27.7979 27.6347 26.1866 28.8693 25.4564 29.5315C26.1191 28.8018 27.3532 27.19 27.3537 25.3184C27.3532 23.6235 26.3415 22.1418 25.6579 21.3349C25.5059 21.1558 25.2826 21.0519 25.0476 21.0519C24.8126 21.0519 24.5898 21.1562 24.4378 21.3354C23.7552 22.1423 22.743 23.6245 22.7435 25.3174C22.7435 27.8216 24.95 29.8582 25.0432 29.9437C25.1272 30.0364 27.1649 32.244 29.6695 32.2435C31.3639 32.2435 32.8456 31.2317 33.653 30.5486C33.8321 30.3966 33.936 30.1733 33.9356 29.9388C33.9356 29.7038 33.8317 29.4805 33.6515 29.3286C32.8456 28.646 31.3639 27.6342 29.669 27.6337Z" fill="white"/>
<path d="M25.1762 32.1265C23.3051 32.1274 21.6943 33.3616 20.9636 34.0243C21.6268 33.2941 22.8604 31.6827 22.8609 29.8111C22.8614 28.1163 21.8491 26.635 21.166 25.8286C21.0136 25.649 20.7907 25.5456 20.5563 25.5451C20.3218 25.5446 20.0975 25.6485 19.946 25.8272C19.2639 26.6336 18.2502 28.1163 18.2511 29.8097C18.2506 31.523 19.2843 33.0178 19.9664 33.8184L16.7291 37.0557C16.3621 37.4227 16.3189 37.9747 16.6864 38.3422C17.0534 38.7093 17.6059 38.6666 17.9729 38.2995L21.2136 35.0589C22.0239 35.741 23.4945 36.7357 25.1767 36.7362C26.8701 36.7362 28.3523 35.7249 29.1597 35.0419C29.3388 34.8899 29.4432 34.6661 29.4427 34.4316C29.4427 34.1966 29.3388 33.9733 29.1587 33.8213C28.3533 33.1382 26.8716 32.1265 25.1762 32.1265Z" fill="white"/>
</svg>
