<svg width="80" height="80" viewBox="0 0 80 80" fill="none" xmlns="http://www.w3.org/2000/svg">
<g id="variant=25">
<path id="Vector" d="M76.0612 41.2352C50.8773 39.5915 25.6902 39.2337 0.496597 41.296C0.480371 41.1841 0.464957 41.0729 0.44873 40.961C0.616672 40.8953 0.781368 40.789 0.953365 40.7687C3.93412 40.4109 6.91406 40.045 9.89724 39.714C23.8412 38.179 37.825 38.0914 51.8103 38.3705C59.4009 38.523 66.9875 38.9554 74.5757 39.2629C74.8466 39.2743 75.1168 39.2629 75.52 39.2629C72.2107 36.313 68.8381 33.6649 65.7308 30.633L65.863 30.3831C66.0618 30.4764 66.276 30.5413 66.4569 30.6679C69.3884 32.707 72.3173 34.7499 75.2434 36.7965C76.3873 37.5948 77.528 38.4005 78.6866 39.1704C79.8224 39.9266 79.9084 40.7362 78.8618 41.6676C78.3294 42.1526 77.7437 42.5755 77.1159 42.9284C73.1453 45.0854 69.1653 47.2191 65.1758 49.3296C64.7142 49.5575 64.2139 49.6967 63.7009 49.7402C63.494 49.7621 63.1411 49.5146 63.0737 49.2996C63.0064 49.0846 63.1394 48.6506 63.3098 48.4997C63.6579 48.1833 64.0814 47.9658 64.4895 47.7476C68.3599 45.6722 72.2326 43.6021 76.1074 41.537C76.0888 41.4364 76.0742 41.3358 76.0612 41.2352Z" fill="white" stroke="white" stroke-width="0.81131" stroke-miterlimit="10" stroke-linecap="round"/>
</g>
</svg>
