<svg width="78" height="15" viewBox="0 0 78 15" fill="none" xmlns="http://www.w3.org/2000/svg">
<path d="M14.6841 5.55176C14.6841 5.62988 14.6621 5.70312 14.6182 5.77148C14.5742 5.83984 14.5229 5.89844 14.4644 5.94727L11.4321 8.9209L12.1499 13.0957C12.1499 13.125 12.1499 13.1543 12.1499 13.1836C12.1499 13.2129 12.1499 13.2422 12.1499 13.2715C12.1499 13.3789 12.123 13.4741 12.0693 13.5571C12.0156 13.6401 11.9302 13.6816 11.813 13.6816C11.7544 13.6816 11.6958 13.6719 11.6372 13.6523C11.5786 13.6328 11.5249 13.6084 11.4761 13.5791L7.71143 11.6162L3.96143 13.5791C3.90283 13.6084 3.84668 13.6328 3.79297 13.6523C3.73926 13.6719 3.68311 13.6816 3.62451 13.6816C3.50732 13.6816 3.41943 13.6401 3.36084 13.5571C3.30225 13.4741 3.27295 13.3789 3.27295 13.2715C3.27295 13.2422 3.27539 13.2129 3.28027 13.1836C3.28516 13.1543 3.2876 13.125 3.2876 13.0957L4.00537 8.9209L0.958496 5.94727C0.909668 5.89844 0.863281 5.83984 0.819336 5.77148C0.775391 5.70312 0.753418 5.62988 0.753418 5.55176C0.753418 5.4248 0.804688 5.33203 0.907227 5.27344C1.00977 5.21484 1.11475 5.18066 1.22217 5.1709L5.42627 4.55566L7.30127 0.74707C7.34033 0.668945 7.39648 0.59082 7.46973 0.512695C7.54297 0.43457 7.62354 0.395508 7.71143 0.395508C7.80908 0.395508 7.89453 0.43457 7.96777 0.512695C8.04102 0.59082 8.09229 0.668945 8.12158 0.74707L10.0112 4.55566L14.2153 5.1709C14.313 5.18066 14.4155 5.21484 14.5229 5.27344C14.6304 5.33203 14.6841 5.4248 14.6841 5.55176Z" fill="#F8C32C"/>
<path d="M30.1147 5.55176C30.1147 5.62988 30.0928 5.70312 30.0488 5.77148C30.0049 5.83984 29.9536 5.89844 29.895 5.94727L26.8628 8.9209L27.5806 13.0957C27.5806 13.125 27.5806 13.1543 27.5806 13.1836C27.5806 13.2129 27.5806 13.2422 27.5806 13.2715C27.5806 13.3789 27.5537 13.4741 27.5 13.5571C27.4463 13.6401 27.3608 13.6816 27.2437 13.6816C27.1851 13.6816 27.1265 13.6719 27.0679 13.6523C27.0093 13.6328 26.9556 13.6084 26.9067 13.5791L23.1421 11.6162L19.3921 13.5791C19.3335 13.6084 19.2773 13.6328 19.2236 13.6523C19.1699 13.6719 19.1138 13.6816 19.0552 13.6816C18.938 13.6816 18.8501 13.6401 18.7915 13.5571C18.7329 13.4741 18.7036 13.3789 18.7036 13.2715C18.7036 13.2422 18.7061 13.2129 18.7109 13.1836C18.7158 13.1543 18.7183 13.125 18.7183 13.0957L19.436 8.9209L16.3892 5.94727C16.3403 5.89844 16.2939 5.83984 16.25 5.77148C16.2061 5.70312 16.1841 5.62988 16.1841 5.55176C16.1841 5.4248 16.2354 5.33203 16.3379 5.27344C16.4404 5.21484 16.5454 5.18066 16.6528 5.1709L20.8569 4.55566L22.7319 0.74707C22.771 0.668945 22.8271 0.59082 22.9004 0.512695C22.9736 0.43457 23.0542 0.395508 23.1421 0.395508C23.2397 0.395508 23.3252 0.43457 23.3984 0.512695C23.4717 0.59082 23.5229 0.668945 23.5522 0.74707L25.4419 4.55566L29.646 5.1709C29.7437 5.18066 29.8462 5.21484 29.9536 5.27344C30.061 5.33203 30.1147 5.4248 30.1147 5.55176Z" fill="#F8C32C"/>
<path d="M45.5454 5.55176C45.5454 5.62988 45.5234 5.70312 45.4795 5.77148C45.4355 5.83984 45.3843 5.89844 45.3257 5.94727L42.2935 8.9209L43.0112 13.0957C43.0112 13.125 43.0112 13.1543 43.0112 13.1836C43.0112 13.2129 43.0112 13.2422 43.0112 13.2715C43.0112 13.3789 42.9844 13.4741 42.9307 13.5571C42.877 13.6401 42.7915 13.6816 42.6743 13.6816C42.6157 13.6816 42.5571 13.6719 42.4985 13.6523C42.4399 13.6328 42.3862 13.6084 42.3374 13.5791L38.5728 11.6162L34.8228 13.5791C34.7642 13.6084 34.708 13.6328 34.6543 13.6523C34.6006 13.6719 34.5444 13.6816 34.4858 13.6816C34.3687 13.6816 34.2808 13.6401 34.2222 13.5571C34.1636 13.4741 34.1343 13.3789 34.1343 13.2715C34.1343 13.2422 34.1367 13.2129 34.1416 13.1836C34.1465 13.1543 34.1489 13.125 34.1489 13.0957L34.8667 8.9209L31.8198 5.94727C31.771 5.89844 31.7246 5.83984 31.6807 5.77148C31.6367 5.70312 31.6147 5.62988 31.6147 5.55176C31.6147 5.4248 31.666 5.33203 31.7686 5.27344C31.8711 5.21484 31.9761 5.18066 32.0835 5.1709L36.2876 4.55566L38.1626 0.74707C38.2017 0.668945 38.2578 0.59082 38.3311 0.512695C38.4043 0.43457 38.4849 0.395508 38.5728 0.395508C38.6704 0.395508 38.7559 0.43457 38.8291 0.512695C38.9023 0.59082 38.9536 0.668945 38.9829 0.74707L40.8726 4.55566L45.0767 5.1709C45.1743 5.18066 45.2769 5.21484 45.3843 5.27344C45.4917 5.33203 45.5454 5.4248 45.5454 5.55176Z" fill="#F8C32C"/>
<path d="M60.9761 5.55176C60.9761 5.62988 60.9541 5.70312 60.9102 5.77148C60.8662 5.83984 60.8149 5.89844 60.7564 5.94727L57.7241 8.9209L58.4419 13.0957C58.4419 13.125 58.4419 13.1543 58.4419 13.1836C58.4419 13.2129 58.4419 13.2422 58.4419 13.2715C58.4419 13.3789 58.415 13.4741 58.3613 13.5571C58.3076 13.6401 58.2222 13.6816 58.105 13.6816C58.0464 13.6816 57.9878 13.6719 57.9292 13.6523C57.8706 13.6328 57.8169 13.6084 57.7681 13.5791L54.0034 11.6162L50.2534 13.5791C50.1948 13.6084 50.1387 13.6328 50.085 13.6523C50.0312 13.6719 49.9751 13.6816 49.9165 13.6816C49.7993 13.6816 49.7114 13.6401 49.6528 13.5571C49.5942 13.4741 49.5649 13.3789 49.5649 13.2715C49.5649 13.2422 49.5674 13.2129 49.5723 13.1836C49.5771 13.1543 49.5796 13.125 49.5796 13.0957L50.2974 8.9209L47.2505 5.94727C47.2017 5.89844 47.1553 5.83984 47.1113 5.77148C47.0674 5.70312 47.0454 5.62988 47.0454 5.55176C47.0454 5.4248 47.0967 5.33203 47.1992 5.27344C47.3018 5.21484 47.4067 5.18066 47.5142 5.1709L51.7183 4.55566L53.5933 0.74707C53.6323 0.668945 53.6885 0.59082 53.7617 0.512695C53.835 0.43457 53.9155 0.395508 54.0034 0.395508C54.1011 0.395508 54.1865 0.43457 54.2598 0.512695C54.333 0.59082 54.3843 0.668945 54.4136 0.74707L56.3032 4.55566L60.5073 5.1709C60.605 5.18066 60.7075 5.21484 60.8149 5.27344C60.9224 5.33203 60.9761 5.4248 60.9761 5.55176Z" fill="#F8C32C"/>
<path d="M76.4067 5.55176C76.4067 5.62988 76.3848 5.70312 76.3408 5.77148C76.2969 5.83984 76.2456 5.89844 76.187 5.94727L73.1548 8.9209L73.8726 13.0957C73.8726 13.125 73.8726 13.1543 73.8726 13.1836C73.8726 13.2129 73.8726 13.2422 73.8726 13.2715C73.8726 13.3789 73.8457 13.4741 73.792 13.5571C73.7383 13.6401 73.6528 13.6816 73.5356 13.6816C73.4771 13.6816 73.4185 13.6719 73.3599 13.6523C73.3013 13.6328 73.2476 13.6084 73.1987 13.5791L69.4341 11.6162L65.6841 13.5791C65.6255 13.6084 65.5693 13.6328 65.5156 13.6523C65.4619 13.6719 65.4058 13.6816 65.3472 13.6816C65.23 13.6816 65.1421 13.6401 65.0835 13.5571C65.0249 13.4741 64.9956 13.3789 64.9956 13.2715C64.9956 13.2422 64.998 13.2129 65.0029 13.1836C65.0078 13.1543 65.0103 13.125 65.0103 13.0957L65.728 8.9209L62.6812 5.94727C62.6323 5.89844 62.5859 5.83984 62.542 5.77148C62.498 5.70312 62.4761 5.62988 62.4761 5.55176C62.4761 5.4248 62.5273 5.33203 62.6299 5.27344C62.7324 5.21484 62.8374 5.18066 62.9448 5.1709L67.1489 4.55566L69.0239 0.74707C69.063 0.668945 69.1191 0.59082 69.1924 0.512695C69.2656 0.43457 69.3462 0.395508 69.4341 0.395508C69.5317 0.395508 69.6172 0.43457 69.6904 0.512695C69.7637 0.59082 69.8149 0.668945 69.8442 0.74707L71.7339 4.55566L75.938 5.1709C76.0356 5.18066 76.1382 5.21484 76.2456 5.27344C76.353 5.33203 76.4067 5.4248 76.4067 5.55176Z" fill="#F8C32C"/>
</svg>
