<svg width="64" height="65" viewBox="0 0 64 65" fill="none" xmlns="http://www.w3.org/2000/svg">
<path d="M39.0972 23.9881C39.0698 24.3172 39.1886 24.6422 39.4221 24.8757C39.6563 25.1098 39.9799 25.23 40.3104 25.2027C41.7912 25.0791 44.2715 24.6128 45.9572 22.9272C47.6415 21.2429 48.1078 18.7639 48.232 17.2824C48.2586 16.9526 48.1405 16.6283 47.9064 16.3942C47.6729 16.1607 47.3486 16.0398 47.0188 16.0678C45.5373 16.1907 43.0583 16.6584 41.3727 18.3427C39.6884 20.0283 39.22 22.5066 39.0972 23.9881Z" fill="white"/>
<path d="M34.1874 30.1216C34.3062 30.2513 37.1723 33.355 40.6931 33.3557C43.0752 33.355 45.1595 31.9329 46.2942 30.9729C46.5461 30.7592 46.6923 30.4452 46.6923 30.1148C46.6923 29.7843 46.5461 29.4703 46.2929 29.2566C45.1582 28.2967 43.0731 26.8725 40.6904 26.8711C38.0592 26.8725 35.7925 28.6093 34.7664 29.5399C35.6976 28.5144 37.4338 26.2471 37.4345 23.6152C37.4338 21.2318 36.011 19.1481 35.0497 18.0134C34.8367 17.7608 34.522 17.6154 34.1915 17.6154C33.8604 17.6161 33.5477 17.7622 33.334 18.0141C32.3741 19.1488 30.9513 21.2325 30.9513 23.6138C30.9541 27.1367 34.057 30.0021 34.1874 30.1216Z" fill="white"/>
<path d="M34.3755 33.1895C31.7442 33.1909 29.4783 34.927 28.4515 35.8583C29.3834 34.8321 31.1189 32.5655 31.1195 29.9336C31.1189 27.5502 29.6961 25.4665 28.7348 24.3318C28.5211 24.0799 28.207 23.9338 27.8766 23.9338C27.5462 23.9338 27.2328 24.0806 27.0191 24.3325C26.0592 25.4672 24.6357 27.5515 24.6364 29.9322C24.6364 33.4537 27.7394 36.3177 27.8705 36.4379C27.9886 36.5683 30.854 39.6727 34.3762 39.672C36.7589 39.672 38.8425 38.2492 39.9779 37.2886C40.2298 37.0749 40.3759 36.7608 40.3753 36.4311C40.3753 36.1006 40.2292 35.7866 39.9759 35.5729C38.8425 34.613 36.7589 33.1902 34.3755 33.1895Z" fill="white"/>
<path d="M28.0576 39.5078C25.4263 39.5092 23.1611 41.2447 22.1335 42.1766C23.0662 41.1498 24.801 38.8838 24.8016 36.2519C24.8023 33.8685 23.3788 31.7855 22.4182 30.6515C22.2039 30.3989 21.8905 30.2535 21.5607 30.2528C21.231 30.2521 20.9156 30.3982 20.7026 30.6494C19.7433 31.7835 18.3178 33.8685 18.3192 36.2498C18.3185 38.6592 19.772 40.7613 20.7312 41.8871L16.1788 46.4395C15.6627 46.9557 15.6019 47.7319 16.1187 48.2488C16.6349 48.7649 17.4118 48.7048 17.928 48.1887L22.4852 43.6315C23.6246 44.5907 25.6926 45.9896 28.0582 45.9903C30.4396 45.9903 32.524 44.5682 33.6593 43.6076C33.9113 43.3939 34.058 43.0792 34.0574 42.7494C34.0574 42.419 33.9113 42.1049 33.658 41.8912C32.5253 40.9306 30.4416 39.5078 28.0576 39.5078Z" fill="white"/>
</svg>
